<?xml version="1.0" encoding="UTF-8"?>
<svg id="Ebene_2" data-name="Ebene 2" xmlns="http://www.w3.org/2000/svg" viewBox="0 0 673.42 100.77">
  <defs>
    <style>
      .cls-1 {
        fill: #38baec;
      }

      .cls-2 {
        fill: #37baec;
      }

      .cls-3 {
        fill: #72706f;
      }
    </style>
  </defs>
  <g id="Ebene_1-2" data-name="Ebene 1">
    <path class="cls-1" d="M53.02,0H13.65C5.44,0-.91,7.19,.11,15.33l3.4,27.21c.75,6.07,5.91,10.62,12.02,10.62H51.13c6.12,0,11.27-4.55,12.03-10.62l3.4-27.21c1.01-8.14-5.34-15.33-13.54-15.33Zm4.97,15.78l-2.73,22.93c-.34,2.84-2.75,4.98-5.61,4.98H17.02c-2.86,0-5.26-2.14-5.6-4.98l-2.74-22.93c-.4-3.36,2.23-6.31,5.61-6.31H52.38c3.39,0,6.01,2.95,5.61,6.31Z"/>
    <path class="cls-1" d="M46.6,42.06H21.19c2.23-4.13,6.42-7.04,11.33-7.5l9.66-12.58c.83-1.07,2.55-.38,2.39,.97l-1.7,14.68c1.52,1.2,2.8,2.71,3.73,4.43Z"/>
    <path class="cls-1" d="M74.72,86.81c-12.3-1.21-12-22.98-21.21-23.97v27.68h3.81v10.25H9.35v-10.25h3.81V57.07H53.51c11.55,0,13.15,25.26,21.85,25.07,4.28-.1,8.12-.39,6.22-12.82-1.45-9.47-4.21-23.44-4.21-23.44h-5.18V26.58h3.95v-4.36l-2.75-3.26c-.35-.41-.3-1.03,.12-1.38l2.74-2.33c.37-.3,.91-.26,1.21,.11l3.29,3.89,.83,.99v6.34h3.63v19.3h-2.36s3,17.41,3.73,23.13c.37,2.95,2.99,19.25-11.86,17.8Z"/>
    <rect class="cls-3" x="124.94" y="31.65" width="2.12" height="48.87"/>
    <path class="cls-3" d="M154.02,63.84h10.01c.35,6.3,2.31,9.03,6.51,9.03,3.5,0,5.39-2.1,5.39-4.76,0-4.13-3.85-6.02-8.26-8.12-6.09-2.87-13.37-6.09-13.37-15.54,0-8.12,5.67-13.65,14.7-13.65,9.66,0,15.75,5.81,16.45,16.73h-9.73c-.49-5.39-2.66-8.19-6.44-8.19-3.08,0-4.69,1.68-4.69,4.27,0,3.92,3.92,5.81,8.47,7.98,6.02,2.87,13.09,6.16,13.09,15.61,0,8.26-5.88,14.14-15.26,14.14-10.5,0-16.31-6.16-16.87-17.5Z"/>
    <path class="cls-3" d="M191.19,31.56h16.94c10.01,0,15.96,5.88,15.96,15.05s-5.81,14.98-15.75,14.98h-6.51v18.97h-10.64V31.56Zm10.64,8.61v13.09h5.39c3.99,0,6.44-2.17,6.44-6.51s-2.45-6.58-6.44-6.58h-5.39Z"/>
    <path class="cls-3" d="M229.13,31.56h17.43c9.8,0,15.33,5.32,15.33,13.37,0,5.04-2.24,9.17-6.44,11.41,4.41,1.68,5.25,5.39,5.32,10.15,.07,4.9,0,9.87,1.89,14.07h-10.78c-1.61-2.59-1.61-6.37-1.61-14.98-.07-3.36-1.26-5.04-4.2-5.04h-6.3v20.02h-10.64V31.56Zm10.64,8.54v12.18h5.74c3.64,0,5.95-2.1,5.95-6.09s-2.24-6.09-5.95-6.09h-5.74Z"/>
    <path class="cls-3" d="M267.42,31.56h10.57v49h-10.57V31.56Z"/>
    <path class="cls-3" d="M294.58,40.25h-11.83v-8.68h34.37v8.68h-11.9v40.32h-10.64V40.25Z"/>
    <path class="cls-3" d="M321.74,31.56h16.94c10.01,0,15.96,5.88,15.96,15.05s-5.81,14.98-15.75,14.98h-6.51v18.97h-10.64V31.56Zm10.64,8.61v13.09h5.39c3.99,0,6.44-2.17,6.44-6.51s-2.45-6.58-6.44-6.58h-5.39Z"/>
    <path class="cls-3" d="M359.68,31.56h17.43c9.8,0,15.33,5.32,15.33,13.37,0,5.04-2.24,9.17-6.44,11.41,4.41,1.68,5.25,5.39,5.32,10.15,.07,4.9,0,9.87,1.89,14.07h-10.78c-1.61-2.59-1.61-6.37-1.61-14.98-.07-3.36-1.26-5.04-4.2-5.04h-6.3v20.02h-10.64V31.56Zm10.64,8.54v12.18h5.74c3.64,0,5.95-2.1,5.95-6.09s-2.24-6.09-5.95-6.09h-5.74Z"/>
    <path class="cls-3" d="M397.9,31.56h29.19v8.68h-18.55v10.71h14v8.54h-14v12.53h18.55v8.54h-29.19V31.56Z"/>
    <path class="cls-3" d="M432.41,31.56h10.57v49h-10.57V31.56Z"/>
    <path class="cls-3" d="M448.02,63.84h10.01c.35,6.3,2.31,9.03,6.51,9.03,3.5,0,5.39-2.1,5.39-4.76,0-4.13-3.85-6.02-8.26-8.12-6.09-2.87-13.37-6.09-13.37-15.54,0-8.12,5.67-13.65,14.7-13.65,9.66,0,15.75,5.81,16.45,16.73h-9.73c-.49-5.39-2.66-8.19-6.44-8.19-3.08,0-4.69,1.68-4.69,4.27,0,3.92,3.92,5.81,8.47,7.98,6.02,2.87,13.09,6.16,13.09,15.61,0,8.26-5.88,14.14-15.26,14.14-10.5,0-16.31-6.16-16.87-17.5Z"/>
    <path class="cls-2" d="M485.19,31.56h17.43c9.8,0,15.33,5.32,15.33,13.37,0,5.04-2.24,9.17-6.44,11.41,4.41,1.68,5.25,5.39,5.32,10.15,.07,4.9,0,9.87,1.89,14.07h-10.78c-1.61-2.59-1.61-6.37-1.61-14.98-.07-3.36-1.26-5.04-4.2-5.04h-6.3v20.02h-10.64V31.56Zm10.64,8.54v12.18h5.74c3.64,0,5.95-2.1,5.95-6.09s-2.24-6.09-5.95-6.09h-5.74Z"/>
    <path class="cls-2" d="M533.84,31.56h13.3l12.18,49h-10.99l-2.24-10.29h-11.83l-2.31,10.29h-10.29l12.18-49Zm2.17,30.66h8.33l-.14-.56-4.06-19.04-3.99,19.04-.14,.56Z"/>
    <path class="cls-2" d="M563.16,31.56h13.65c12.53,0,20.58,8.68,20.58,24.64s-8.26,24.36-21,24.36h-13.23V31.56Zm10.64,8.82v31.5h2.52c6.58,0,10.36-4.76,10.36-15.68s-3.78-15.82-10.36-15.82h-2.52Z"/>
    <path class="cls-2" d="M610.55,31.56h13.3l12.18,49h-10.99l-2.24-10.29h-11.83l-2.31,10.29h-10.29l12.18-49Zm2.17,30.66h8.33l-.14-.56-4.06-19.04-3.99,19.04-.14,.56Z"/>
    <path class="cls-2" d="M639.88,31.56h17.43c9.8,0,15.33,5.32,15.33,13.37,0,5.04-2.24,9.17-6.44,11.41,4.41,1.68,5.25,5.39,5.32,10.15,.07,4.9,0,9.87,1.89,14.07h-10.78c-1.61-2.59-1.61-6.37-1.61-14.98-.07-3.36-1.26-5.04-4.2-5.04h-6.3v20.02h-10.64V31.56Zm10.64,8.54v12.18h5.74c3.64,0,5.95-2.1,5.95-6.09s-2.24-6.09-5.95-6.09h-5.74Z"/>
  </g>
</svg>